<?xml version="1.0" encoding="UTF-8" standalone="no"?>
<!-- Created with Inkscape (http://www.inkscape.org/) -->

<svg
   xmlns:dc="http://purl.org/dc/elements/1.1/"
   xmlns:cc="http://creativecommons.org/ns#"
   xmlns:rdf="http://www.w3.org/1999/02/22-rdf-syntax-ns#"
   xmlns:svg="http://www.w3.org/2000/svg"
   xmlns="http://www.w3.org/2000/svg"
   xmlns:sodipodi="http://sodipodi.sourceforge.net/DTD/sodipodi-0.dtd"
   xmlns:inkscape="http://www.inkscape.org/namespaces/inkscape"
   width="69.531754mm"
   height="16.413282mm"
   viewBox="0 0 69.531753 16.413282"
   version="1.1"
   id="svg8"
   inkscape:version="0.92.3 (2405546, 2018-03-11)"
   sodipodi:docname="logo.svg">
  <defs
     id="defs2" />
  <sodipodi:namedview
     id="base"
     pagecolor="#ffffff"
     bordercolor="#666666"
     borderopacity="1.0"
     inkscape:pageopacity="0.0"
     inkscape:pageshadow="2"
     inkscape:zoom="2.8"
     inkscape:cx="201.31515"
     inkscape:cy="55.54126"
     inkscape:document-units="mm"
     inkscape:current-layer="layer1"
     showgrid="false"
     fit-margin-top="0"
     fit-margin-left="0"
     fit-margin-right="0"
     fit-margin-bottom="0"
     inkscape:window-width="1920"
     inkscape:window-height="1137"
     inkscape:window-x="-8"
     inkscape:window-y="-8"
     inkscape:window-maximized="1" />
  <metadata
     id="metadata5">
    <rdf:RDF>
      <cc:Work
         rdf:about="">
        <dc:format>image/svg+xml</dc:format>
        <dc:type
           rdf:resource="http://purl.org/dc/dcmitype/StillImage" />
        <dc:title />
      </cc:Work>
    </rdf:RDF>
  </metadata>
  <g
     inkscape:label="Layer 1"
     inkscape:groupmode="layer"
     id="layer1"
     transform="translate(-92.22256,-123.83325)">
    <g
       id="g1005"
       transform="translate(1.0583333)">
      <path
         sodipodi:nodetypes="ccscccscsccscsccsccc"
         style="fill:#000000;stroke-width:0.26458335"
         d="m 95.356639,139.36211 c -0.630632,-0.73733 -0.765078,-1.86263 -0.320597,-2.68357 0.40496,-0.74801 0.346052,-1.13646 -0.582551,-3.8405 -0.937615,-2.73028 -1.116437,-3.04957 -1.934781,-3.45475 -1.916844,-0.94902 -1.765782,-3.45247 0.241428,-4.00094 1.89214,-0.51705 3.373801,1.38602 2.417917,3.10561 -0.416173,0.74931 -0.360624,1.11278 0.593257,3.86514 0.96902,2.79604 1.125526,3.07155 1.96379,3.45682 1.192591,0.54813 1.62047,1.88351 0.969132,3.02465 -0.65031,1.13935 -2.566085,1.44125 -3.347595,0.52754 z m 1.911781,-1.00296 c 0.464564,-0.3801 0.425419,-0.79596 -0.103411,-1.0978 -0.237852,-0.13576 -0.544286,-0.18595 -0.680984,-0.11152 -0.422518,0.23003 -0.40686,1.01386 0.0252,1.26046 0.225721,0.12884 0.567351,0.10586 0.759193,-0.0511 z m -3.492607,-10.3572 c 0.346508,-0.18865 0.224053,-1.07737 -0.180244,-1.30812 -0.336707,-0.19219 -0.994277,0.26889 -0.979678,0.68691 0.01353,0.38618 0.809044,0.81225 1.159934,0.62119 z"
         id="path904"
         inkscape:connector-curvature="0" />
      <path
         inkscape:connector-curvature="0"
         id="path906"
         d="m 103.10746,138.82757 c -0.63064,-0.73733 -0.76508,-1.86263 -0.3206,-2.68357 0.40496,-0.74801 0.34605,-1.13646 -0.58255,-3.8405 -0.93762,-2.73028 -1.11644,-3.04957 -1.93478,-3.45475 -1.916848,-0.94902 -1.765786,-3.45247 0.24142,-4.00094 1.89214,-0.51705 3.37381,1.38602 2.41792,3.10561 -0.41617,0.74931 -0.36062,1.11278 0.59326,3.86514 0.96902,2.79604 1.12552,3.07155 1.96379,3.45682 1.19259,0.54813 1.62047,1.88351 0.96913,3.02465 -0.65031,1.13935 -2.56608,1.44125 -3.34759,0.52754 z m 1.91178,-1.00296 c 0.46456,-0.3801 0.42542,-0.79596 -0.10341,-1.0978 -0.23786,-0.13576 -0.54429,-0.18595 -0.68099,-0.11152 -0.42252,0.23003 -0.40686,1.01386 0.0252,1.26046 0.22572,0.12884 0.56735,0.10586 0.75919,-0.0511 z m -3.49261,-10.3572 c 0.34651,-0.18865 0.22405,-1.07737 -0.18024,-1.30812 -0.33671,-0.19219 -0.99428,0.26889 -0.97968,0.68691 0.0135,0.38618 0.80904,0.81225 1.15993,0.62119 z"
         style="fill:#000000;stroke-width:0.26458335"
         sodipodi:nodetypes="ccscccscsccscsccsccc" />
      <path
         sodipodi:nodetypes="cszcccccccsccc"
         inkscape:connector-curvature="0"
         id="path826-2"
         d="m 95.70837,140.05423 c -2.02701,-1.18699 -1.30032,-4.18474 1.01443,-4.18474 0.7506,0 0.816581,-0.17688 1.86411,-1.16901 1.047529,-0.99213 2.83312,-2.62745 4.03546,-3.22147 0.32332,0.45905 0.57081,1.61452 0.607,1.74792 -0.77291,0 -2.75066,1.51475 -3.58875,2.53753 -0.80994,0.98843 -0.98477,1.40066 -0.92793,2.18797 0.0528,0.73055 -0.0809,1.11096 -0.5411,1.54062 -0.77949,0.72771 -1.78691,0.95723 -2.46322,0.56118 z m 1.56005,-1.69508 c 0.21504,-0.5604 -0.0251,-0.90216 -0.63401,-0.90216 -0.59477,0 -0.89658,0.40871 -0.69321,0.93871 0.19783,0.51552 1.12517,0.48999 1.32722,-0.0366 z"
         style="fill:#000000;stroke-width:0.26458338" />
      <path
         sodipodi:nodetypes="ccsscccscccscsc"
         inkscape:connector-curvature="0"
         id="path826-6"
         d="m 104.35107,135.88691 c 0,0 0.28317,-0.56489 1.39167,-3.717 1.44035,-4.07719 1.50892,-4.40637 1.09627,-5.26249 -0.88721,-1.84068 0.83445,-3.68399 2.69075,-2.88087 0.69419,0.30034 0.93102,0.58581 1.23596,1.4898 0.33189,0.9839 0.3026,1.19059 -0.24399,1.72035 -0.34168,0.33116 -0.89596,0.71649 -1.23174,0.85629 -0.47046,0.19599 -0.97173,1.2549 -2.1856,4.61781 -1.44264,3.99672 -1.06003,2.81741 -0.67075,3.5415 0.96203,1.78941 -0.25941,0.49189 -2.08257,-0.36539 z m 5.06575,-9.84945 c -0.006,-0.60021 -0.35551,-0.82955 -0.92164,-0.60535 -0.25463,0.10083 -0.48532,0.30869 -0.51265,0.46191 -0.0845,0.47361 0.53722,0.95124 0.99974,0.76807 0.24164,-0.0957 0.43719,-0.37678 0.43455,-0.62463 z"
         style="fill:#000000;stroke-width:0.26458338" />
    </g>
    <path
       d="m 118.61581,139.40493 q -2.37805,0.36279 -4.23247,-0.92219 -1.96874,-1.3696 -2.30749,-3.95274 -0.41272,-3.14702 0.97845,-5.9848 1.55661,-3.15061 4.44062,-3.5906 2.77442,-0.42327 4.3002,0.71702 1.59198,1.18584 1.98799,4.20558 0.41271,3.14704 -0.84107,5.91747 -1.44218,3.17026 -4.32623,3.61026 z m -0.87636,-12.58576 q -2.06605,0.31521 -3.20859,2.75322 -1.05677,2.23938 -0.7347,4.69517 0.2302,1.75544 1.58042,2.67201 1.29129,0.86063 2.99472,0.60077 2.04916,-0.31263 3.08933,-2.7443 0.92782,-2.17332 0.60218,-4.6564 -0.28509,-2.17384 -1.30309,-2.91844 -0.97108,-0.71466 -3.02027,-0.40203 z"
       style="font-style:normal;font-variant:normal;font-weight:normal;font-stretch:normal;font-size:medium;line-height:1.25;font-family:'Comic Sans MS';-inkscape-font-specification:'Comic Sans MS';letter-spacing:0px;word-spacing:0px;fill:#000000;fill-opacity:1;stroke:none;stroke-width:0.45286885"
       id="path959"
       inkscape:connector-curvature="0" />
    <path
       inkscape:connector-curvature="0"
       d="m 127.85604,124.81355 c -0.25722,0 -0.47457,0.0917 -0.65215,0.27544 -0.1715,0.18372 -0.25735,0.40742 -0.25735,0.67076 0,1.22373 -0.0381,3.08097 -0.10129,5.35419 0.31763,-0.50907 0.77309,-0.84657 1.27124,-0.89658 0.16266,-0.0163 0.31758,-0.0145 0.46612,10e-4 0.0165,-0.48496 0.043,-1.03742 0.0822,-1.68465 0.0734,-1.25544 0.11007,-2.17997 0.11007,-2.77399 0,-0.26334 -0.0891,-0.48704 -0.26665,-0.67076 -0.17149,-0.18368 -0.38884,-0.27544 -0.65216,-0.27544 z m 6.82543,0.15606 c -0.2572,0 -0.48994,0.11928 -0.69815,0.35812 l -2.63653,3.05925 c -0.69811,0.7931 -1.34297,1.48761 -1.94355,2.09961 0.54642,0.3209 0.91392,0.88 1.07383,1.47898 0.9448,-0.92517 1.88673,-1.84721 2.77141,-2.81637 1.57999,-1.75146 2.36988,-2.8292 2.36988,-3.23339 0,-0.26334 -0.0949,-0.48704 -0.28474,-0.67076 -0.18985,-0.18368 -0.40718,-0.27544 -0.65215,-0.27544 z m -4.20802,8.30647 c -0.1198,0.37861 -0.35227,0.70706 -0.7121,0.92036 -0.23806,0.14112 -0.49325,0.22494 -0.75395,0.25942 l 2.33009,2.34559 c 1.72085,1.63511 3.04669,2.45256 3.97753,2.45256 h 5.3e-4 c 0.26334,0 0.47428,-0.11662 0.63355,-0.34933 0.12851,-0.18985 0.19327,-0.38865 0.19327,-0.59686 0,-0.44705 -0.24226,-0.75024 -0.72605,-0.90951 -0.4042,-0.13473 -0.78058,-0.3367 -1.12965,-0.60616 l -0.9648,-0.80874 c -1.16789,-1.07667 -2.12933,-1.99114 -2.8484,-2.70733 z m -3.68969,0.22945 c -0.0581,2.14263 -0.094,3.92539 -0.094,5.10511 0,0.29396 0.0853,0.56643 0.25683,0.81752 0.20821,0.30626 0.48705,0.45941 0.83612,0.45941 0.53281,0 0.79944,-0.30322 0.79944,-0.90951 l 0.008,-4.50928 c -0.60589,-0.039 -1.20821,-0.32449 -1.66398,-0.78342 -0.0525,-0.0621 -0.0988,-0.12148 -0.14262,-0.17983 z m 1.33268,-3.28824 c 2.33724,-0.23457 3.25579,3.02445 1.64486,3.97939 -0.91212,0.5407 -2.07626,0.25255 -2.83491,-0.51137 -0.47304,-0.5593 -0.58893,-0.94548 -0.47004,-1.56376 0.20135,-1.0472 0.88033,-1.82598 1.66015,-1.90428 z m -0.26242,2.2887 c 0.15632,0.57954 0.55163,0.71431 1.04373,0.35569 0.48066,-0.35031 0.48385,-0.85836 0.007,-1.16691 -0.46349,-0.30011 -1.1979,0.26667 -1.05104,0.81127 z"
       style="font-style:normal;font-variant:normal;font-weight:normal;font-stretch:normal;font-size:medium;line-height:1.25;font-family:'Comic Sans MS';-inkscape-font-specification:'Comic Sans MS';letter-spacing:0px;word-spacing:0px;fill:#000000;fill-opacity:1;stroke:none;stroke-width:0.47032624"
       id="path828" />
    <path
       sodipodi:nodetypes="ccccccccscsccccssccccccscccccccssccccccc"
       d="m 149.29622,139.75919 c -0.2817,0 -0.52973,-0.0796 -0.74405,-0.23884 -0.24498,-0.18372 -0.36745,-0.41031 -0.36745,-0.67978 -0.2817,-0.741 -0.4593,-1.34421 -0.53279,-1.80964 -0.0734,-0.46544 -0.31538,-1.78517 -0.72571,-3.95921 -0.31232,-1.64736 -0.52054,-2.97015 -0.62465,-3.96837 -0.54503,2.02093 -1.12989,3.73261 -1.75454,5.13502 -0.72263,1.62287 -1.19112,2.8936 -1.40547,3.81221 0.0734,0.14079 0.11022,0.27864 0.11022,0.41337 0,0.27558 -0.12248,0.50217 -0.36745,0.67977 -0.22048,0.16532 -0.47157,0.24802 -0.75327,0.24802 -0.82675,0 -1.24011,-0.37051 -1.24011,-1.11151 l -0.28478,-1.16663 -1.00127,-4.50118 c -0.39806,-1.51875 -1.07784,-3.69584 -2.03931,-6.53128 -0.0428,-0.13474 -0.0643,-0.25722 -0.0643,-0.36745 0,-0.56953 0.32152,-0.8543 0.96453,-0.8543 0.39806,0 0.70427,0.2174 0.91862,0.65221 0.11021,0.22047 0.33374,0.85432 0.67058,1.90153 0.36132,1.10844 0.72264,2.44348 1.08395,4.00511 l 0.89105,4.06024 c 0.65528,-1.51877 1.30749,-3.36823 1.95663,-5.54838 0.39806,-1.32893 0.7012,-2.25058 0.90941,-2.765 0.55117,-1.35342 1.08703,-2.03013 1.60757,-2.03013 0.42869,0 0.73182,0.21741 0.90942,0.65221 0.22046,0.52667 0.444,1.78211 0.67059,3.7663 0.12248,1.00433 0.33069,2.21078 0.62465,3.6193 l 0.78999,3.61012 c 0.82063,-1.97194 1.8464,-4.63896 3.07733,-8.00105 0.0674,-0.18372 0.22041,-0.76245 0.4593,-1.73617 0.17758,-0.71651 0.39502,-1.2738 0.65222,-1.67187 0.22046,-0.33682 0.50829,-0.50523 0.86349,-0.50523 0.61852,0 1.64241,0.43022 1.64241,1.04262 0,0.10399 -0.8126,0.28624 -1.00858,0.7946 l -0.36743,0.99208 -0.50524,1.63512 -2.72826,6.63234 c -0.25108,0.72876 -0.68283,1.78822 -1.29523,3.17838 -0.22048,0.41031 -0.55117,0.61547 -0.99211,0.61547 z"
       style="font-style:normal;font-variant:normal;font-weight:normal;font-stretch:normal;font-size:medium;line-height:1.25;font-family:'Comic Sans MS';-inkscape-font-specification:'Comic Sans MS';letter-spacing:0px;word-spacing:0px;fill:#000000;fill-opacity:1;stroke:none;stroke-width:0.47032624"
       id="path963"
       inkscape:connector-curvature="0" />
    <g
       id="g1013">
      <path
         sodipodi:nodetypes="cssccccccc"
         inkscape:connector-curvature="0"
         id="path965"
         style="font-style:normal;font-variant:normal;font-weight:normal;font-stretch:normal;font-size:medium;line-height:1.25;font-family:'Comic Sans MS';-inkscape-font-specification:'Comic Sans MS';letter-spacing:0px;word-spacing:0px;fill:#000000;fill-opacity:1;stroke:none;stroke-width:0.47032624"
         d="m 159.65116,130.84203 c -0.14078,1.78211 -0.21128,3.48458 -0.21128,5.10745 0,0.42869 0.0124,0.95842 0.0368,1.58919 0.0245,0.63078 0.0368,1.16051 0.0368,1.5892 -0.62318,1.15656 -1.85019,0.73703 -2.11191,-0.056 0.16496,-2.13891 0.1703,-1.95233 0.16461,-3.00299 0,-1.41464 0.0857,-3.18142 0.25722,-5.30035 0.95489,-2.29223 2.36863,-1.8922 2.36863,-1.8922 0.0384,0.75808 -0.57835,1.55308 -0.54077,1.9657 z" />
      <path
         sodipodi:nodetypes="csccccccccc"
         inkscape:connector-curvature="0"
         id="path826-2-0"
         d="m 159.29974,124.15545 c 2.33724,-0.23457 3.25579,3.02445 1.64486,3.97939 -0.91212,0.5407 -2.07626,0.25255 -2.83491,-0.51137 -0.47293,-0.5593 -0.58893,-0.94548 -0.47004,-1.56376 0.20135,-1.0472 0.88033,-1.82602 1.66015,-1.90428 z m -0.26242,2.2887 c 0.15632,0.57954 0.55163,0.71431 1.04373,0.35569 0.48066,-0.35031 0.48385,-0.85836 0.007,-1.16691 -0.46349,-0.30011 -1.1979,0.26667 -1.05104,0.81127 z"
         style="fill:#000000;stroke-width:0.26458341" />
    </g>
  </g>
</svg>
